<svg width="38" height="38" viewBox="0 0 38 38" fill="none" xmlns="http://www.w3.org/2000/svg">
<path fill-rule="evenodd" clip-rule="evenodd" d="M19 0C16.8139 0 15.0417 1.77221 15.0417 3.95834V15.0417H3.95833C1.77221 15.0417 0 16.8139 0 19C0 21.1861 1.77221 22.9583 3.95834 22.9583H15.0417V34.0417C15.0417 36.2278 16.8139 38 19 38C21.1862 38 22.9584 36.2278 22.9584 34.0417V22.9583H34.0417C36.2278 22.9583 38 21.1861 38 19C38 16.8139 36.2278 15.0417 34.0417 15.0417H22.9584V3.95833C22.9584 1.77221 21.1862 0 19 0Z" fill="#4E4E4E"/>
</svg>
