<svg width="849" height="739" viewBox="0 0 849 739" fill="none" xmlns="http://www.w3.org/2000/svg">
<rect x="369.74" y="233.04" width="77.4911" height="77.4911" rx="26.2188" stroke="#E2967D" stroke-width="17.4792"/>
<path d="M385.404 240.048L372.709 256.782L396.944 275.247L379.056 296.598L396.944 309.293L413.86 286.732L434.452 301.791L444.839 286.732L424.642 271.785L440.799 240.048L444.839 214.658L409.736 260.4L385.404 240.048Z" fill="#9A705E"/>
<rect x="551.677" y="205.878" width="115.581" height="115.581" rx="39.1065" stroke="#98D28A" stroke-width="26.071"/>
<rect x="551.676" y="205.878" width="115.581" height="115.581" rx="39.1065" stroke="#98D28A" stroke-width="26.071"/>
<path d="M556.891 262.412L615.24 303.209L673.776 229.332L672.833 200.663L612.03 262.412L579.508 235.948L556.891 262.412Z" fill="#699A5E"/>
<rect x="162.473" y="9.40602" width="75.5008" height="75.5008" rx="25.5454" stroke="#98D28A" stroke-width="17.0302"/>
<path d="M165.879 46.3354L203.994 72.9856L242.231 24.7272L241.615 6L201.897 46.3354L180.653 29.0488L165.879 46.3354Z" fill="#699A5E"/>
<rect x="45.878" y="526.625" width="97.9649" height="97.9649" rx="33.146" stroke="#98D28A" stroke-width="22.0973"/>
<path d="M50.2975 574.542L99.7529 609.122L149.367 546.505L148.568 522.206L97.0327 574.542L69.4672 552.112L50.2975 574.542Z" fill="#699A5E"/>
<rect x="477.063" y="463.91" width="75.5008" height="75.5008" rx="25.5454" stroke="#98D28A" stroke-width="17.0302"/>
<path d="M480.469 500.84L518.584 527.49L556.821 479.232L556.205 460.504L516.487 500.84L495.243 483.553L480.469 500.84Z" fill="#699A5E"/>
<rect x="19.7632" y="197.938" width="170.567" height="170.567" rx="57.7105" stroke="#E2D27D" stroke-width="38.4737"/>
<rect x="300.486" y="626.397" width="100.993" height="100.993" rx="34.1707" stroke="#E2D27D" stroke-width="22.7805"/>
<rect x="269.241" y="217.175" width="45.6166" height="59.0942" fill="#DBA774"/>
<mask id="mask0_3_149" style="mask-type:alpha" maskUnits="userSpaceOnUse" x="269" y="217" width="46" height="60">
<rect x="269.241" y="217.175" width="45.6166" height="59.0942" fill="#DBA774"/>
</mask>
<g mask="url(#mask0_3_149)">
<path d="M202.89 165.338C202.89 143.876 202.89 165.338 202.89 84.4722C292.049 84.4722 264.27 84.4722 292.049 84.4722C292.049 84.4722 319.005 84.4722 381.209 84.4722C381.209 165.338 381.209 143.876 381.209 165.338C381.209 214.58 341.291 254.498 292.049 254.498C242.808 254.498 202.89 214.58 202.89 165.338Z" fill="#A37B55"/>
</g>
<path d="M366.573 104.201C366.573 122.191 366.573 104.201 366.573 171.985C291.836 171.985 315.122 171.985 291.836 171.985C291.836 171.985 269.241 171.985 217.099 171.985C217.099 104.201 217.099 122.191 217.099 104.201C217.099 62.9247 250.56 29.4639 291.836 29.4639C333.112 29.4639 366.573 62.9247 366.573 104.201Z" fill="#DBA774"/>
<path d="M217.099 168.509C217.099 150.519 217.099 168.509 217.099 100.725C291.836 100.725 268.55 100.725 291.836 100.725C291.836 100.725 314.43 100.725 366.572 100.725C366.572 168.509 366.572 150.519 366.572 168.509C366.572 209.785 333.112 243.246 291.836 243.246C250.56 243.246 217.099 209.785 217.099 168.509Z" fill="#DBA774"/>
<path d="M217.099 168.509C217.099 150.519 217.099 168.509 217.099 100.725C291.836 100.725 268.55 100.725 291.836 100.725C291.836 100.725 314.43 100.725 366.572 100.725C366.572 168.509 366.572 150.519 366.572 168.509C366.572 209.785 333.112 243.246 291.836 243.246C250.56 243.246 217.099 209.785 217.099 168.509Z" fill="#DBA774"/>
<path d="M213.602 134.617C217.99 134.617 213.602 134.617 230.134 134.617C230.134 151.998 230.134 146.582 230.134 151.998C230.134 151.998 230.134 157.252 230.134 169.378C213.602 169.378 217.99 169.378 213.602 169.378C203.534 169.378 195.373 161.597 195.373 151.998C195.373 142.399 203.534 134.617 213.602 134.617Z" fill="#DBA774"/>
<path d="M370.07 134.617C365.682 134.617 370.07 134.617 353.537 134.617C353.537 151.998 353.537 146.582 353.537 151.998C353.537 151.998 353.537 157.252 353.537 169.378C370.07 169.378 365.682 169.378 370.07 169.378C380.137 169.378 388.298 161.597 388.298 151.998C388.298 142.399 380.137 134.617 370.07 134.617Z" fill="#DBA774"/>
<path d="M370.918 104.201C370.918 122.191 370.918 104.201 370.918 171.985C370.918 174.592 368.745 177.634 365.704 177.634C362.662 177.634 360.489 175.027 360.489 171.985C360.489 145.914 360.489 146.349 360.489 104.201C334.365 104.201 310.043 104.201 291.836 104.201C291.836 104.201 247.277 104.201 222.748 104.201C222.748 135.486 222.748 135.92 222.748 171.985C222.748 175.461 219.306 177.634 217.533 177.634C215.967 177.634 212.754 175.461 212.754 171.985C212.754 104.201 212.754 122.191 212.754 104.201C212.754 62.9247 248.16 29.4639 291.836 29.4639C335.512 29.4639 370.918 62.9247 370.918 104.201Z" fill="#404040"/>
<circle cx="359.62" cy="64.2252" r="30.4162" fill="#404040"/>
<circle cx="316.169" cy="46.8446" r="26.071" fill="#404040"/>
<circle cx="279.669" cy="48.5826" r="26.071" fill="#404040"/>
<path d="M317.907 187.628C317.907 202.027 306.234 213.699 291.836 213.699C277.437 213.699 265.765 202.027 265.765 187.628C291.836 187.628 277.437 187.628 291.836 187.628C306.234 187.628 297.485 187.628 317.907 187.628Z" fill="#F5F5F5"/>
<path d="M374.876 85.5569C369.21 89.5142 365.736 85.7555 371.972 81.3996C380.979 75.1076 384.245 63.5477 376.985 53.1544C369.725 42.7611 359.029 41.4695 348.982 48.4875C343.093 52.6014 340.171 47.941 345.836 43.9837C357.316 35.9646 373.123 38.7703 381.143 50.2505C389.162 61.7306 386.356 77.5378 374.876 85.5569Z" fill="#787878"/>
<path d="M328.882 67.6918C324.129 71.0116 321.103 67.6984 326.334 64.0442C333.891 58.766 336.463 48.8284 330.093 39.7095C323.723 30.5906 314.592 29.2804 306.163 35.1677C301.223 38.6189 298.651 34.536 303.403 31.2162C313.034 24.489 326.545 27.2009 333.58 37.2734C340.616 47.3458 338.513 60.9646 328.882 67.6918Z" fill="#787878"/>
<path d="M286.341 60.1948C281.653 63.4696 279.145 60.8852 284.305 57.2805C291.76 52.0737 295.013 43.2964 289.924 36.0105C284.835 28.7246 276.503 28.4009 268.189 34.2085C263.315 37.6129 261.296 34.3261 265.984 31.0513C275.484 24.4152 287.743 25.5596 293.364 33.6074C298.986 41.6551 295.841 53.5587 286.341 60.1948Z" fill="#787878"/>
<path d="M344.997 126.295C344.243 127.455 341.454 128.686 336.459 126.295C331.463 123.903 331.019 121.147 323.858 121.147C315.89 121.147 313.864 123.319 308.919 126.295C305.608 128.288 303.001 127.889 301.599 126.295C300.394 124.924 299.959 122.885 301.599 120.579C303.239 118.273 313.429 110.284 323.858 110.284C332.358 110.284 343.844 118.751 344.997 120.579C346.453 122.885 345.752 125.135 344.997 126.295Z" fill="#404040"/>
<path d="M282.48 126.295C281.725 127.455 278.937 128.686 273.941 126.295C268.946 123.903 268.501 121.147 261.34 121.147C253.373 121.147 251.346 123.319 246.402 126.295C243.091 128.288 240.483 127.889 239.082 126.295C237.876 124.924 237.442 122.885 239.082 120.579C240.721 118.273 250.912 110.284 261.34 110.284C269.84 110.284 281.326 118.751 282.48 120.579C283.935 122.885 283.235 125.135 282.48 126.295Z" fill="#404040"/>
<circle cx="260.985" cy="139.397" r="9.12485" fill="#3A3A3A"/>
<circle cx="323.555" cy="139.397" r="9.12485" fill="#3A3A3A"/>
<path d="M291.836 151.998L301.62 166.988H282.052L291.836 151.998Z" fill="#A27142"/>
<rect x="200.587" y="276.269" width="182.497" height="305.9" fill="#7FC6CB"/>
<rect x="200.53" y="276.269" width="48.6659" height="100.707" transform="rotate(30.2962 200.53 276.269)" fill="#7FC6CB"/>
<rect x="436.934" y="361.623" width="48.6659" height="100.707" transform="rotate(147.946 436.934 361.623)" fill="#7FC6CB"/>
<rect x="489.944" y="446.788" width="48.6659" height="100.707" transform="rotate(147.946 489.944 446.788)" fill="#DBA774"/>
<path d="M489.575 446.214L444.785 427.18L500.445 296.204L545.235 315.238L489.575 446.214Z" fill="#DBA774"/>
<path d="M529.951 270.621L500.404 296.257L545.159 315.376L553.849 320.59L565.147 318.852L576.879 320.59L580.355 311.465L567.319 305.382L558.194 281.483L567.319 275.835L580.355 273.662H591.652L607.295 272.793V263.668L592.521 262.365H559.932L529.951 270.621Z" fill="#DBA774"/>
<path d="M558.194 280.614L556.891 286.698L558.629 294.954L567.319 305.816L566.45 299.299L570.361 301.471L573.837 305.816L579.051 303.209L577.748 297.561L573.837 294.519L569.057 292.346H577.748L581.658 295.823L585.134 300.168L590.349 296.257L587.307 289.305L583.396 285.394L576.879 283.656L583.831 283.222L589.48 286.698L593.825 290.608L599.039 284.96L594.694 277.573L587.742 273.662H580.355L565.147 275.835L558.194 280.614Z" fill="#B4987D"/>
<path d="M149.714 363.173L191.733 387.723L128.816 495.409L92.3924 461.808L111.511 428.559L149.714 363.173Z" fill="#DBA774"/>
<path d="M269.241 273.662H276.193C276.193 273.662 280.826 273.662 287.925 273.662H299.657H314.812C314.812 286.246 304.611 296.448 292.026 296.448C279.442 296.448 269.241 286.246 269.241 273.662Z" fill="#DBA774"/>
<path d="M163.219 353.613H326.597L371.352 550.884H207.974L163.219 353.613Z" fill="#988B8B"/>
<path d="M264.461 353.613H245.401H225.355C225.355 341.614 234.109 331.887 244.908 331.887C255.707 331.887 264.461 341.614 264.461 353.613Z" fill="#C4C4C4"/>
<path d="M238.39 353.324H225.683H212.319C212.319 345.324 218.155 338.84 225.355 338.84C232.554 338.84 238.39 345.324 238.39 353.324Z" fill="#C4C4C4"/>
<path d="M277.497 353.324H264.79H251.426C251.426 345.324 257.262 338.84 264.461 338.84C271.66 338.84 277.497 345.324 277.497 353.324Z" fill="#C4C4C4"/>
<rect x="304.255" y="455.115" width="48.6659" height="173.62" transform="rotate(92.8113 304.255 455.115)" fill="#DBA774"/>
<path d="M367.876 492.659L372.221 501.349L356.756 504.825L300.567 503.543L300.531 455.068L323.819 453.903L352.837 446.02L356.756 455.11L346.418 459.216L341.642 464.508L354.841 467.457L370.815 464.508L372.221 470.064L379.174 470.064L382.65 477.885L372.221 482.665L375.263 490.486L367.876 492.659Z" fill="#DBA774"/>
<path d="M518.776 128.318C524.824 128.318 530.508 127.693 535.826 126.441C541.145 125.19 545.733 123.104 549.592 120.184C553.555 117.264 556.631 113.51 558.821 108.922C561.115 104.229 562.262 98.4932 562.262 91.7148C562.262 84.9363 561.115 79.2528 558.821 74.6644C556.631 69.9716 553.555 66.1652 549.592 63.2453C545.733 60.3253 541.145 58.2396 535.826 56.9882C530.508 55.7368 524.824 55.1111 518.776 55.1111H463.088V128.318H518.776ZM518.776 63.871C523.469 63.871 527.901 64.3402 532.072 65.2788C536.348 66.1131 540.05 67.6252 543.178 69.8152C546.411 72.0051 548.966 74.8729 550.843 78.4186C552.825 81.9642 553.815 86.3963 553.815 91.7148C553.815 97.0333 552.877 101.517 551 105.167C549.122 108.713 546.568 111.581 543.335 113.771C540.102 115.857 536.348 117.369 532.072 118.307C527.901 119.141 523.469 119.559 518.776 119.559H471.535V63.871H518.776ZM518.776 45.5691C526.389 45.5691 533.428 46.4034 539.893 48.0719C546.359 49.6362 551.99 52.2954 556.787 56.0497C561.584 59.6996 565.339 64.4445 568.05 70.2844C570.761 76.1243 572.117 83.2678 572.117 91.7148C572.117 100.162 570.761 107.305 568.05 113.145C565.339 118.985 561.584 123.782 556.787 127.536C551.99 131.186 546.359 133.846 539.893 135.514C533.428 137.078 526.389 137.86 518.776 137.86H453.546V45.5691H518.776ZM518.776 146.62C527.849 146.62 536.139 145.63 543.648 143.648C551.26 141.667 557.778 138.486 563.201 134.106C568.728 129.726 573.003 124.043 576.028 117.056C579.156 110.069 580.721 101.622 580.721 91.7148C580.721 81.8078 579.156 73.3608 576.028 66.3738C573.003 59.3867 568.728 53.7033 563.201 49.3233C557.778 44.9434 551.26 41.7628 543.648 39.7814C536.139 37.8 527.849 36.8093 518.776 36.8093H444.943V146.62H518.776ZM441.032 32.8986H518.776C524.72 32.8986 530.456 33.2115 535.983 33.8372C541.51 34.3586 546.933 35.61 552.251 37.5914C557.674 39.5728 563.044 42.4927 568.363 46.3513C573.786 50.2098 579.313 55.424 584.944 61.9939C589.637 66.6866 593.287 73.1001 595.894 81.2342C598.501 89.2641 599.804 97.9718 599.804 107.357C599.804 117.89 598.188 126.858 594.955 134.263C591.722 141.667 587.186 147.663 581.346 152.252C575.611 156.944 568.728 160.334 560.698 162.419C552.668 164.609 543.908 165.704 534.418 165.704H457.144L441.032 150.531V32.8986ZM490.619 115.648H518.776C522.947 115.648 526.91 115.283 530.664 114.553C534.418 113.719 537.703 112.415 540.519 110.642C543.439 108.765 545.733 106.315 547.402 103.29C549.07 100.162 549.905 96.3033 549.905 91.7148C549.905 89.4205 549.644 87.1263 549.122 84.832C544.534 83.5806 539.633 82.9549 534.418 82.9549H490.619V115.648ZM699.03 128.318C705.078 128.318 710.71 127.693 715.924 126.441C721.242 125.086 725.831 123 729.689 120.184C733.652 117.264 736.729 113.51 738.918 108.922C741.108 104.229 742.203 98.4932 742.203 91.7148C742.203 85.0406 741.056 79.3571 738.762 74.6644C736.572 69.9716 733.548 66.2174 729.689 63.4017C725.831 60.4817 721.242 58.3961 715.924 57.1446C710.71 55.789 705.078 55.1111 699.03 55.1111H681.823C675.67 55.1111 669.935 55.789 664.616 57.1446C659.402 58.3961 654.866 60.4817 651.007 63.4017C647.149 66.2174 644.072 69.9716 641.778 74.6644C639.588 79.3571 638.493 85.0406 638.493 91.7148C638.493 98.4932 639.588 104.229 641.778 108.922C644.072 113.51 647.149 117.264 651.007 120.184C654.866 123.104 659.402 125.19 664.616 126.441C669.935 127.693 675.67 128.318 681.823 128.318H699.03ZM681.823 119.559C677.13 119.559 672.698 119.089 668.527 118.151C664.355 117.212 660.705 115.7 657.577 113.614C654.448 111.424 651.946 108.557 650.069 105.011C648.191 101.465 647.253 97.0333 647.253 91.7148C647.253 86.5006 648.191 82.1207 650.069 78.575C651.946 75.0293 654.448 72.1615 657.577 69.9716C660.81 67.7816 664.512 66.2173 668.683 65.2788C672.855 64.3402 677.235 63.871 681.823 63.871H699.03C703.618 63.871 707.998 64.3402 712.17 65.2788C716.341 66.2173 719.991 67.7816 723.119 69.9716C726.248 72.1615 728.751 75.0293 730.628 78.575C732.505 82.1207 733.444 86.5006 733.444 91.7148C733.444 96.929 732.505 101.309 730.628 104.855C728.855 108.4 726.404 111.268 723.276 113.458C720.147 115.648 716.497 117.212 712.326 118.151C708.155 119.089 703.723 119.559 699.03 119.559H681.823ZM628.638 91.7148C628.638 83.2678 629.942 76.1243 632.549 70.2844C635.26 64.4445 638.962 59.6996 643.655 56.0497C648.452 52.2954 654.083 49.6362 660.549 48.0719C667.119 46.4034 674.21 45.5691 681.823 45.5691H699.03C706.643 45.5691 713.682 46.4034 720.147 48.0719C726.613 49.7405 732.192 52.3997 736.885 56.0497C741.682 59.6996 745.384 64.4445 747.991 70.2844C750.703 76.1243 752.058 83.2678 752.058 91.7148C752.058 100.162 750.703 107.305 747.991 113.145C745.384 118.985 741.682 123.73 736.885 127.38C732.192 131.03 726.613 133.689 720.147 135.358C713.682 137.026 706.643 137.86 699.03 137.86H681.823C674.21 137.86 667.119 137.078 660.549 135.514C654.083 133.846 648.452 131.186 643.655 127.536C638.962 123.782 635.26 118.985 632.549 113.145C629.942 107.305 628.638 100.162 628.638 91.7148ZM619.878 91.7148C619.878 101.622 621.39 110.069 624.415 117.056C627.543 123.939 631.819 129.57 637.242 133.95C642.769 138.33 649.286 141.563 656.795 143.648C664.408 145.63 672.75 146.62 681.823 146.62H699.03C708.103 146.62 716.393 145.63 723.902 143.648C731.41 141.563 737.876 138.33 743.298 133.95C748.825 129.57 753.101 123.939 756.125 117.056C759.15 110.069 760.662 101.622 760.662 91.7148C760.662 81.8078 759.15 73.4129 756.125 66.5302C753.101 59.5432 748.825 53.8597 743.298 49.4798C737.876 45.0998 731.41 41.9192 723.902 39.9378C716.393 37.8521 708.103 36.8093 699.03 36.8093H681.823C672.75 36.8093 664.408 37.8521 656.795 39.9378C649.286 41.9192 642.769 45.0998 637.242 49.4798C631.819 53.8597 627.543 59.5432 624.415 66.5302C621.39 73.4129 619.878 81.8078 619.878 91.7148ZM615.968 91.7148C615.968 81.0778 617.584 72.0573 620.817 64.6531C624.05 57.1446 628.586 51.044 634.426 46.3513C640.266 41.6585 647.201 38.2692 655.231 36.1836C663.365 33.9936 672.229 32.8986 681.823 32.8986H699.03C705.078 32.8986 710.762 33.2636 716.08 33.9936C721.503 34.6193 726.822 36.0271 732.036 38.2171C737.25 40.3028 742.412 43.327 747.522 47.2898C752.736 51.1483 758.107 56.3625 763.634 62.9324C768.327 67.6252 772.185 73.8301 775.209 81.5471C778.234 89.2641 779.746 97.8675 779.746 107.357C779.746 117.89 778.129 126.858 774.896 134.263C771.768 141.667 767.284 147.663 761.444 152.252C755.708 156.944 748.825 160.334 740.796 162.419C732.87 164.609 724.162 165.704 714.672 165.704H697.466C686.829 165.704 676.922 164.505 667.745 162.106C658.568 159.708 651.007 155.589 645.063 149.749C639.119 144.535 634.27 139.633 630.515 135.045C626.761 130.352 623.789 125.711 621.599 121.123C619.513 116.534 618.053 111.842 617.219 107.045C616.385 102.247 615.968 97.1375 615.968 91.7148ZM699.03 115.648C703.097 115.648 706.955 115.283 710.605 114.553C714.36 113.719 717.645 112.363 720.46 110.486C723.276 108.609 725.466 106.158 727.03 103.134C728.699 100.005 729.533 96.199 729.533 91.7148C729.533 89.212 729.22 86.9177 728.594 84.832C724.319 83.5806 719.678 82.9549 714.672 82.9549H697.466C693.294 82.9549 689.331 83.3721 685.577 84.2063C681.823 85.0406 678.486 86.3963 675.566 88.2734C672.75 90.1505 670.508 92.6533 668.84 95.7819C667.171 98.9104 666.337 102.769 666.337 107.357C666.337 109.86 666.545 111.946 666.963 113.614C669.152 114.344 671.499 114.866 674.002 115.179C676.505 115.492 679.112 115.648 681.823 115.648H699.03Z" fill="#717171"/>
</svg>
